<svg width="512" height="512" xmlns="http://www.w3.org/2000/svg">

 <g>
  <title>background</title>
  <rect fill="none" id="canvas_background" height="402" width="582" y="-1" x="-1"/>
 </g>
 <g>
  <title>Layer 1</title>
  <path fill="#ffffff" id="svg_2" d="m430.399994,147l-67.5,0l-40.399994,-40.800003c0,0 -0.200012,-0.199997 -0.300018,-0.199997l-0.199982,-0.199997l0,0c-6,-6 -14.100006,-9.800003 -23.300018,-9.800003l-83.999985,0c-9.800003,0 -18.5,4.199997 -24.600006,10.900002l0,0.099998l-39.5,40l-68.999992,0c-18.599998,0 -33.599998,14.600006 -33.599998,33.199997l0,202.099991c0,18.600006 15,33.700012 33.599998,33.700012l348.799995,0c18.5,0 33.599976,-15.100006 33.599976,-33.700012l0,-202.099991c0.000031,-18.599991 -15.099976,-33.199997 -33.599976,-33.199997zm-174.399994,218.5c-50.899994,0 -92.399994,-41.600006 -92.399994,-92.600006c0,-51.099991 41.5,-92.599991 92.399994,-92.599991c51,0 92.399994,41.5 92.399994,92.599991c0,51 -41.399994,92.600006 -92.399994,92.600006zm168.100006,-165c-7.699982,0 -14,-6.300003 -14,-14.100006s6.300018,-14.099991 14,-14.099991c7.700012,0 14,6.300003 14,14.099991s-6.300018,14.100006 -14,14.100006z"/>
  <path fill="#ffffff" id="svg_3" d="m256,202.899994c-38.600006,0 -69.800003,31.300003 -69.800003,70c0,38.600006 31.199997,70 69.800003,70c38.5,0 69.799988,-31.300018 69.799988,-70c0,-38.699997 -31.299988,-70 -69.799988,-70z"/>
 </g>
</svg>